<?xml version="1.0" encoding="UTF-8" standalone="no" ?>
<!DOCTYPE svg PUBLIC "-//W3C//DTD SVG 1.1//EN" "http://www.w3.org/Graphics/SVG/1.1/DTD/svg11.dtd">
<svg xmlns="http://www.w3.org/2000/svg" xmlns:xlink="http://www.w3.org/1999/xlink" version="1.1" width="500" height="500" viewBox="0 0 500 500" xml:space="preserve">
<desc>Created with Fabric.js 4.6.0</desc>
<defs>
</defs>
<g transform="matrix(0.93 0 0 0.93 202.41 103.93)" id="1rpsawUBaKTfHpf81bJWw"  >
<path style="stroke: rgb(0,0,0); stroke-width: 23; stroke-dasharray: none; stroke-linecap: butt; stroke-dashoffset: 0; stroke-linejoin: miter; stroke-miterlimit: 4; fill: rgb(255,255,255); fill-opacity: 0; fill-rule: nonzero; opacity: 1;" vector-effect="non-scaling-stroke"  transform=" translate(0, 0)" d="M -6.27281 -36.47497 C -6.27281 -36.47497 12.896519999999999 0.26624000000000336 3.8443400000000008 36.47498" stroke-linecap="round" />
</g>
<g transform="matrix(1.02 0 0 1.02 159.04 200.39)" id="UNptsW-2QCXyl_ZH8nC6D"  >
<path style="stroke: rgb(0,0,0); stroke-width: 22; stroke-dasharray: none; stroke-linecap: butt; stroke-dashoffset: 0; stroke-linejoin: miter; stroke-miterlimit: 4; fill: rgb(255,255,255); fill-opacity: 0; fill-rule: nonzero; opacity: 1;" vector-effect="non-scaling-stroke"  transform=" translate(0, 0)" d="M 52.71565 -68.95634 L -7.454740000000001 -39.13737999999999 C -7.454740000000001 -39.13737999999999 4.259849999999998 -10.915869999999995 -2.6624100000000013 17.838130000000007 C -9.584670000000001 46.59212000000001 -28.22152 55.37807000000001 -28.22152 55.37807000000001 L -52.71566 68.95634000000001" stroke-linecap="round" />
</g>
<g transform="matrix(1 0 0 1 105.7 266.77)" id="2vSuPB9Yrsc9L18m7jya7"  >
<path style="stroke: rgb(0,0,0); stroke-width: 1; stroke-dasharray: none; stroke-linecap: butt; stroke-dashoffset: 0; stroke-linejoin: miter; stroke-miterlimit: 4; fill: rgb(255,255,255); fill-opacity: 0; fill-rule: nonzero; opacity: 1;" vector-effect="non-scaling-stroke"  transform=" translate(0, 0)" d="M 0 0" stroke-linecap="round" />
</g>
<g transform="matrix(1 0 0 1 151.16 298.72)" id="nlE5_j9qpIMfUbB5EKD57"  >
<path style="stroke: rgb(0,0,0); stroke-width: 21; stroke-dasharray: none; stroke-linecap: butt; stroke-dashoffset: 0; stroke-linejoin: miter; stroke-miterlimit: 4; fill: rgb(255,255,255); fill-opacity: 0; fill-rule: nonzero; opacity: 1;" vector-effect="non-scaling-stroke"  transform=" translate(0, 0)" d="M -40.75106 -41.53355 C -18.386840000000003 29.28647 40.75106999999999 41.533539999999995 40.75106999999999 41.533539999999995" stroke-linecap="round" />
</g>
<g transform="matrix(1 0 0 1 179.71 337.06)" id="9XCdFWBWsBYSs8a_mLK7G"  >
<path style="stroke: rgb(0,0,0); stroke-width: 1; stroke-dasharray: none; stroke-linecap: butt; stroke-dashoffset: 0; stroke-linejoin: miter; stroke-miterlimit: 4; fill: rgb(255,255,255); fill-opacity: 0; fill-rule: nonzero; opacity: 1;" vector-effect="non-scaling-stroke"  transform=" translate(0, 0)" d="M 0 0" stroke-linecap="round" />
</g>
<g transform="matrix(1 0 0 1 226.57 337.56)" id="NYLgXMX1g70b0On9OXY7R"  >
<path style="stroke: rgb(0,0,0); stroke-width: 21; stroke-dasharray: none; stroke-linecap: butt; stroke-dashoffset: 0; stroke-linejoin: miter; stroke-miterlimit: 4; fill: rgb(255,255,255); fill-opacity: 0; fill-rule: nonzero; opacity: 1;" vector-effect="non-scaling-stroke"  transform=" translate(0, 0)" d="M -42.04318 0.51609 C 10.672469999999997 17.02301 42.04318 -6.4061699999999995 42.04318 -6.4061699999999995" stroke-linecap="round" />
</g>
<g transform="matrix(1 0 0 1 291.52 256.92)" id="gSRVe5UNq6LmphKa99GwX"  >
<path style="stroke: rgb(0,0,0); stroke-width: 23; stroke-dasharray: none; stroke-linecap: butt; stroke-dashoffset: 0; stroke-linejoin: miter; stroke-miterlimit: 4; fill: rgb(255,255,255); fill-opacity: 0; fill-rule: nonzero; opacity: 1;" vector-effect="non-scaling-stroke"  transform=" translate(0, 0)" d="M -103.81615 -191.95953 C 9.069900000000004 -179.71246 72.43518 -93.45048 72.43518 -92.918 C 72.43518 -92.38552 116.63113000000001 -35.41001000000001 100.12421 51.38444999999999 C 83.61729 138.17890999999997 37.823890000000006 156.81575999999998 37.823890000000006 156.81575999999998 C 37.823890000000006 156.81575999999998 0.5501900000000077 188.23216 -94.23149000000001 191.95952999999997" stroke-linecap="round" />
</g>
<g transform="matrix(0.97 -0.26 0.65 2.42 210.51 206.94)" id="TNxP37LHTPBGc0aciyJsm"  >
<path style="stroke: rgb(0,0,0); stroke-width: 6; stroke-dasharray: none; stroke-linecap: butt; stroke-dashoffset: 0; stroke-linejoin: miter; stroke-miterlimit: 4; fill: rgb(255,255,255); fill-opacity: 0; fill-rule: nonzero; opacity: 1;" vector-effect="non-scaling-stroke"  transform=" translate(0, 0)" d="M -19.1346 0 C 14.944209999999998 -13.31203 28.788719999999998 -5.32481 28.788719999999998 -5.32481 L 13.879239999999998 5.32482 C 13.879239999999998 5.32482 -53.21341000000001 13.31204 -19.134600000000006 0.000009999999999621423 z" stroke-linecap="round" />
</g>
</svg>